<?xml version="1.0" encoding="utf-8"?>
<!-- Generator: Adobe Illustrator 27.1.1, SVG Export Plug-In . SVG Version: 6.00 Build 0)  -->
<svg version="1.1" id="Calque_1" xmlns="http://www.w3.org/2000/svg" xmlns:xlink="http://www.w3.org/1999/xlink" x="0px" y="0px"
	 viewBox="0 0 287.7 192.5" style="enable-background:new 0 0 287.7 192.5;" xml:space="preserve">
<style type="text/css">
	.st0{fill:#9B6F43;}
	.st1{fill:#C55635;}
	.st2{fill:#622483;}
	.st3{fill:#A4C842;}
</style>
<g>
	<g>
		<path class="st0" d="M152.8,1.8l-45.1,1.1c16.2,16.5,36.7,28.3,39.4,29.5C150.2,26.1,155,14.8,152.8,1.8z"/>
		<path class="st1" d="M81.3,30.7c8.9,1,41.8,10.3,56.9,18.1c-21.5,33.2-37.6,45.9-60,66.8C78.2,115.6,81.2,30.2,81.3,30.7z"/>
		<path class="st2" d="M191.4,21.8l25.1,37.6c-22.8-3.7-44.3-13.8-46.8-15.2C173,38,179.4,27.5,191.4,21.8z"/>
		<path class="st3" d="M208.9,96.9c-5.9-6.7-32.5-28.3-47.5-36.1c-14.8,36.7-15.9,57.2-20.1,87.6C141.3,148.4,209.3,96.7,208.9,96.9
			z"/>
	</g>
	<g>
		<g>
			<path d="M13.5,162.4v3.2H6.7v8.8h6.1v3.2H6.7v12.7h-4v-28H13.5z"/>
			<path d="M15,181c0-4.1,0.6-9.7,6.3-9.7c5.7,0,6.3,5.6,6.3,9.7c0,3.9-0.6,9.6-6.3,9.6C15.6,190.6,15,185,15,181z M23.8,181
				c0-1.5,0.4-6.5-2.5-6.5s-2.5,5-2.5,6.5c0,1.3-0.4,6.4,2.5,6.4S23.8,182.4,23.8,181z"/>
			<path d="M34.2,173.8L34.2,173.8c0.9-1.5,2.1-2.5,4.1-2.5c4,0,4.1,3.3,4.1,6.2v12.9h-3.7v-13c0-1.3-0.2-3-2.2-3
				c-2.5,0-2.3,2.6-2.3,4.2v11.7h-3.7v-18.8h3.7V173.8z"/>
			<path d="M53.8,187.9L53.8,187.9c-0.8,1.6-1.7,2.7-3.8,2.7c-4.6,0-4.7-6.9-4.7-9.9c0-3.1,0.1-9.4,4.8-9.4c1.9,0,2.8,1,3.6,2.4h0.1
				v-14.1h3.7v30.8h-3.7V187.9z M54,181c0-1.5,0.2-6.5-2.3-6.5c-2.8,0-2.5,5-2.5,6.5c0,1.6-0.3,6.6,2.5,6.6
				C54.1,187.5,54,182.4,54,181z"/>
			<path d="M68.9,187.9L68.9,187.9c-0.8,1.6-1.6,2.7-3.8,2.7c-4.6,0-4.7-6.9-4.7-9.9c0-3.1,0.1-9.4,4.8-9.4c1.7,0,2.9,1,3.6,2.4h0.1
				v-2.1h3.7v18.8h-3.7V187.9z M69,181c0-1.5,0.2-6.5-2.3-6.5c-2.8,0-2.5,5-2.5,6.5c0,1.6-0.3,6.6,2.5,6.6
				C69.2,187.5,69,182.4,69,181z"/>
			<path d="M80.6,166.3v5.3h2v2.7h-2v16h-3.7v-16h-2v-2.7h2v-5.3H80.6z"/>
			<path d="M84.3,165.9c0-1.3,1.1-2.3,2.5-2.3c1.3,0,2.5,1,2.5,2.3c0,1.3-1.2,2.3-2.5,2.3C85.4,168.3,84.3,167.2,84.3,165.9z
				 M88.6,190.3h-3.7v-18.8h3.7V190.3z"/>
			<path d="M91.4,181c0-4.1,0.6-9.7,6.3-9.7c5.7,0,6.3,5.6,6.3,9.7c0,3.9-0.6,9.6-6.3,9.6C92,190.6,91.4,185,91.4,181z M100.3,181
				c0-1.5,0.4-6.5-2.5-6.5c-2.9,0-2.5,5-2.5,6.5c0,1.3-0.4,6.4,2.5,6.4C100.6,187.5,100.3,182.4,100.3,181z"/>
			<path d="M110.7,173.8L110.7,173.8c0.9-1.5,2.1-2.5,4.1-2.5c4,0,4.1,3.3,4.1,6.2v12.9h-3.7v-13c0-1.3-0.2-3-2.2-3
				c-2.5,0-2.3,2.6-2.3,4.2v11.7h-3.7v-18.8h3.7V173.8z"/>
			<path d="M140.4,166.7c-1-0.7-2-1.2-3.4-1.2c-2.2,0-3.5,1.7-3.5,3.6c0,1.2,0.3,2.1,1.1,3l3,3.1c2.7,2.6,4.3,4.4,4.3,8.2
				c0,3.9-2.6,7.3-7,7.3c-1.5,0-3.1-0.4-4.4-1.3v-3.7c1.2,0.8,2.4,1.4,3.9,1.4c2.5,0,3.5-1.8,3.5-3.9c0-5.6-8.4-6.7-8.4-14
				c0-3.9,2.2-7.2,6.7-7.2c1.5,0,2.9,0.2,4.2,0.9L140.4,166.7z"/>
			<path d="M152.5,187.9L152.5,187.9c-0.8,1.6-1.6,2.7-3.8,2.7c-4.6,0-4.7-6.9-4.7-9.9c0-3.1,0.1-9.4,4.8-9.4c1.7,0,2.9,1,3.6,2.4
				h0.1v-2.1h3.7v18.8h-3.7V187.9z M152.6,181c0-1.5,0.2-6.5-2.3-6.5c-2.8,0-2.5,5-2.5,6.5c0,1.6-0.3,6.6,2.5,6.6
				C152.7,187.5,152.6,182.4,152.6,181z"/>
			<path d="M159,165.9c0-1.3,1.1-2.3,2.5-2.3c1.3,0,2.5,1,2.5,2.3c0,1.3-1.2,2.3-2.5,2.3C160.1,168.3,159,167.2,159,165.9z
				 M163.3,190.3h-3.7v-18.8h3.7V190.3z"/>
			<path d="M170.5,173.8L170.5,173.8c0.9-1.5,2.1-2.5,4.1-2.5c4,0,4.1,3.3,4.1,6.2v12.9H175v-13c0-1.3-0.2-3-2.2-3
				c-2.5,0-2.3,2.6-2.3,4.2v11.7h-3.7v-18.8h3.7V173.8z"/>
			<path d="M186.7,166.3v5.3h2v2.7h-2v16H183v-16h-2v-2.7h2v-5.3H186.7z"/>
			<path d="M211.4,166.2c-0.8-0.4-1.6-0.7-2.5-0.7c-5.6,0-5.6,7.6-5.6,11.1c0,3.7,0.3,10.7,5.8,10.7c0.9,0,1.6-0.2,2.4-0.6v3.3
				c-1,0.6-2,0.8-3.2,0.8c-8.1,0-9.2-8.1-9.2-13.9c0-5.6,0.8-14.8,8.9-14.8c1.4,0,2.3,0.2,3.5,0.8V166.2z"/>
			<path d="M217.5,159.5v14.2h0.1c0.8-1.5,2.1-2.5,4.1-2.5c4,0,4.1,3.3,4.1,6.2v12.9H222v-13c0-1.3-0.2-3-2.2-3
				c-2.5,0-2.3,2.6-2.3,4.2v11.7h-3.7v-30.8H217.5z"/>
			<path d="M237.1,187.9L237.1,187.9c-0.8,1.6-1.6,2.7-3.8,2.7c-4.6,0-4.7-6.9-4.7-9.9c0-3.1,0.1-9.4,4.8-9.4c1.7,0,2.9,1,3.6,2.4
				h0.1v-2.1h3.7v18.8h-3.7V187.9z M237.2,181c0-1.5,0.2-6.5-2.3-6.5c-2.8,0-2.5,5-2.5,6.5c0,1.6-0.3,6.6,2.5,6.6
				C237.4,187.5,237.2,182.4,237.2,181z"/>
			<path d="M248,173.9L248,173.9c1-1.6,2.3-2.6,4.3-2.6v3.5l-0.6,0c-2.8,0-3.7,1.4-3.7,3.8v11.8h-3.8v-18.8h3.7V173.9z"/>
			<path d="M258.7,190.3h-3.7v-30.8h3.7V190.3z"/>
			<path d="M265.4,181.7c0,1.6-0.1,5.9,2.3,5.9c2,0,2.3-2,2.3-3.5h3.5c0,3.5-1.6,6.6-5.8,6.6c-5.6,0-6.1-5.6-6.1-9.5
				c0-3.8,0.5-9.8,6-9.8c5.4,0,6.1,5.9,6.1,9.8v0.6H265.4z M269.8,179.2c0-1.4,0-4.8-2.3-4.8c-2.3,0-2.2,3.3-2.2,4.8H269.8z"/>
			<path d="M284,175.4c-0.7-0.6-1.9-1-2.8-1c-1.4,0-2.5,0.7-2.5,2c0.1,3.2,6.3,3.3,6.3,8.7c0,3.3-2.2,5.6-5.8,5.6
				c-1.3,0-2.1-0.3-3.3-0.9v-3.4c1,0.7,1.8,1.2,3.1,1.2c1.6,0,2.5-0.9,2.5-2.4c0-3.3-6.3-3.5-6.3-8.7c0-3,2.2-5.1,5.4-5.1
				c1.3,0,2.3,0.2,3.4,0.8V175.4z"/>
		</g>
	</g>
</g>
</svg>
