<svg width="170" height="66" viewBox="0 0 170 66" fill="none" xmlns="http://www.w3.org/2000/svg">
<path d="M16.152 51.72C13.624 51.72 11.344 51.28 9.312 50.4C7.296 49.52 5.632 48.264 4.32 46.632C3.024 44.984 2.2 43.032 1.848 40.776L7.848 39.864C8.36 41.912 9.408 43.496 10.992 44.616C12.592 45.736 14.432 46.296 16.512 46.296C17.744 46.296 18.904 46.104 19.992 45.72C21.08 45.336 21.96 44.776 22.632 44.04C23.32 43.304 23.664 42.4 23.664 41.328C23.664 40.848 23.584 40.408 23.424 40.008C23.264 39.592 23.024 39.224 22.704 38.904C22.4 38.584 22 38.296 21.504 38.04C21.024 37.768 20.464 37.536 19.824 37.344L10.896 34.704C10.128 34.48 9.296 34.184 8.4 33.816C7.52 33.432 6.68 32.912 5.88 32.256C5.096 31.584 4.448 30.736 3.936 29.712C3.44 28.672 3.192 27.392 3.192 25.872C3.192 23.648 3.752 21.784 4.872 20.28C6.008 18.76 7.528 17.624 9.432 16.872C11.352 16.12 13.48 15.752 15.816 15.768C18.184 15.784 20.296 16.192 22.152 16.992C24.008 17.776 25.56 18.92 26.808 20.424C28.056 21.928 28.936 23.744 29.448 25.872L23.232 26.952C22.976 25.736 22.48 24.704 21.744 23.856C21.024 22.992 20.136 22.336 19.08 21.888C18.04 21.44 16.928 21.2 15.744 21.168C14.592 21.152 13.52 21.328 12.528 21.696C11.552 22.048 10.76 22.56 10.152 23.232C9.56 23.904 9.264 24.688 9.264 25.584C9.264 26.432 9.52 27.128 10.032 27.672C10.544 28.2 11.176 28.624 11.928 28.944C12.696 29.248 13.472 29.504 14.256 29.712L20.448 31.44C21.296 31.664 22.248 31.968 23.304 32.352C24.36 32.736 25.376 33.272 26.352 33.96C27.328 34.648 28.128 35.552 28.752 36.672C29.392 37.792 29.712 39.216 29.712 40.944C29.712 42.736 29.336 44.312 28.584 45.672C27.848 47.016 26.848 48.136 25.584 49.032C24.32 49.928 22.872 50.6 21.24 51.048C19.624 51.496 17.928 51.72 16.152 51.72ZM47.3629 51.72C44.8349 51.72 42.7149 51.12 41.0029 49.92C39.2909 48.72 38.0029 47.088 37.1389 45.024C36.2749 42.944 35.8429 40.616 35.8429 38.04C35.8429 35.432 36.2749 33.096 37.1389 31.032C38.0029 28.968 39.2669 27.344 40.9309 26.16C42.6109 24.96 44.6829 24.36 47.1469 24.36C49.5949 24.36 51.7149 24.96 53.5069 26.16C55.3149 27.344 56.7149 28.968 57.7069 31.032C58.6989 33.08 59.1949 35.416 59.1949 38.04C59.1949 40.632 58.7069 42.96 57.7309 45.024C56.7549 47.088 55.3789 48.72 53.6029 49.92C51.8269 51.12 49.7469 51.72 47.3629 51.72ZM34.8589 62.52V25.08H39.9709V43.272H40.6909V62.52H34.8589ZM46.4749 46.536C47.9789 46.536 49.2189 46.16 50.1949 45.408C51.1709 44.656 51.8909 43.64 52.3549 42.36C52.8349 41.064 53.0749 39.624 53.0749 38.04C53.0749 36.472 52.8349 35.048 52.3549 33.768C51.8749 32.472 51.1309 31.448 50.1229 30.696C49.1149 29.928 47.8349 29.544 46.2829 29.544C44.8109 29.544 43.6109 29.904 42.6829 30.624C41.7549 31.328 41.0669 32.32 40.6189 33.6C40.1869 34.864 39.9709 36.344 39.9709 38.04C39.9709 39.72 40.1869 41.2 40.6189 42.48C41.0669 43.76 41.7629 44.76 42.7069 45.48C43.6669 46.184 44.9229 46.536 46.4749 46.536ZM76.269 51.72C73.645 51.72 71.341 51.152 69.357 50.016C67.373 48.88 65.821 47.304 64.701 45.288C63.597 43.272 63.045 40.952 63.045 38.328C63.045 35.496 63.589 33.04 64.677 30.96C65.765 28.864 67.277 27.24 69.213 26.088C71.149 24.936 73.389 24.36 75.933 24.36C78.621 24.36 80.901 24.992 82.773 26.256C84.661 27.504 86.061 29.272 86.973 31.56C87.885 33.848 88.229 36.544 88.005 39.648H82.269V37.536C82.253 34.72 81.757 32.664 80.781 31.368C79.805 30.072 78.269 29.424 76.173 29.424C73.805 29.424 72.045 30.16 70.893 31.632C69.741 33.088 69.165 35.224 69.165 38.04C69.165 40.664 69.741 42.696 70.893 44.136C72.045 45.576 73.725 46.296 75.933 46.296C77.357 46.296 78.581 45.984 79.605 45.36C80.645 44.72 81.445 43.8 82.005 42.6L87.717 44.328C86.725 46.664 85.189 48.48 83.109 49.776C81.045 51.072 78.765 51.72 76.269 51.72ZM67.341 39.648V35.28H85.173V39.648H67.341ZM100.139 51.72C98.2673 51.72 96.6833 51.368 95.3873 50.664C94.0913 49.944 93.1073 48.992 92.4353 47.808C91.7793 46.624 91.4513 45.32 91.4513 43.896C91.4513 42.648 91.6593 41.528 92.0753 40.536C92.4913 39.528 93.1313 38.664 93.9953 37.944C94.8593 37.208 95.9793 36.608 97.3553 36.144C98.3953 35.808 99.6113 35.504 101.003 35.232C102.411 34.96 103.931 34.712 105.563 34.488C107.211 34.248 108.931 33.992 110.723 33.72L108.659 34.896C108.675 33.104 108.275 31.784 107.459 30.936C106.643 30.088 105.267 29.664 103.331 29.664C102.163 29.664 101.035 29.936 99.9473 30.48C98.8593 31.024 98.0993 31.96 97.6673 33.288L92.3873 31.632C93.0273 29.44 94.2433 27.68 96.0353 26.352C97.8433 25.024 100.275 24.36 103.331 24.36C105.635 24.36 107.659 24.736 109.403 25.488C111.163 26.24 112.467 27.472 113.315 29.184C113.779 30.096 114.059 31.032 114.155 31.992C114.251 32.936 114.299 33.968 114.299 35.088V51H109.235V45.384L110.075 46.296C108.907 48.168 107.539 49.544 105.971 50.424C104.419 51.288 102.475 51.72 100.139 51.72ZM101.291 47.112C102.603 47.112 103.723 46.88 104.651 46.416C105.579 45.952 106.315 45.384 106.859 44.712C107.419 44.04 107.795 43.408 107.987 42.816C108.291 42.08 108.459 41.24 108.491 40.296C108.539 39.336 108.563 38.56 108.563 37.968L110.339 38.496C108.595 38.768 107.099 39.008 105.851 39.216C104.603 39.424 103.531 39.624 102.635 39.816C101.739 39.992 100.947 40.192 100.259 40.416C99.5873 40.656 99.0193 40.936 98.5553 41.256C98.0913 41.576 97.7313 41.944 97.4753 42.36C97.2353 42.776 97.1153 43.264 97.1153 43.824C97.1153 44.464 97.2753 45.032 97.5953 45.528C97.9153 46.008 98.3793 46.392 98.9873 46.68C99.6113 46.968 100.379 47.112 101.291 47.112ZM120.5 51L120.548 16.44H126.404V37.56L135.884 25.08H143.108L133.052 38.04L143.972 51H136.316L126.404 38.52V51H120.5Z" fill="white"/>
<path d="M146.856 51V15.72H152.64V51H146.856ZM160.309 21.144V15.84H166.093V21.144H160.309ZM160.309 51V25.08H166.093V51H160.309Z" fill="url(#paint0_linear_6_75)"/>
<defs>
<linearGradient id="paint0_linear_6_75" x1="85" y1="0" x2="85" y2="66" gradientUnits="userSpaceOnUse">
<stop stop-color="#1A5CE0"/>
<stop offset="1" stop-color="#007AFF"/>
</linearGradient>
</defs>
</svg>
