<svg width="150" height="92" viewBox="0 0 150 92" fill="none" xmlns="http://www.w3.org/2000/svg">
<path d="M80.3204 54.4569C78.9086 57.1235 78.3478 59.7703 77.845 66.0714C77.4969 70.338 77.1875 72.7083 76.4912 76.56C75.853 80.0957 75.8724 80.7081 76.6266 82.4266C77.1101 83.5722 77.2455 84.1845 77.3228 85.587L77.4195 87.3252L82.0803 87.2067C87.65 87.0684 88.2495 87.0092 88.675 86.5153C89.3905 85.7252 88.849 83.6512 87.2245 80.8661C86.625 79.8192 86.5476 79.3847 86.0642 74.565C85.7547 71.4046 84.9618 68.0664 82.7958 60.7382C82.2543 58.8815 81.5968 56.4716 81.3647 55.3457L80.9199 53.2915L80.3204 54.4569Z" fill="#007AFF"/>
<path d="M34.3215 68.9651C34.1439 69.464 33.4928 70.7213 32.9207 71.779L31.875 73.6948L32.092 74.972C32.2301 75.7303 32.3091 78.145 32.2696 80.9788C32.2301 86.0477 32.3288 86.6264 33.2561 87.1253C33.7099 87.3848 37.0244 87.3848 43.5549 87.1652C47.4022 87.0255 47.6587 86.9856 48.073 86.5665C48.4281 86.2073 48.507 85.9279 48.4676 85.1297C48.4084 83.7727 47.8954 82.5154 46.6525 80.6395C45.2319 78.5242 44.8965 77.5064 44.6598 74.8323C44.4822 72.7369 44.5611 71.28 44.9952 68.7656L45.1136 68.0671H39.8852H34.6766L34.3215 68.9651Z" fill="#007AFF"/>
<path d="M60.6534 0.174973C57.323 0.747992 54.8992 2.01258 52.3965 4.52201C50.7412 6.18179 50.3865 6.63626 49.48 8.47387C48.2976 10.9043 47.7656 12.8407 47.4897 15.8441C46.7015 24.1232 50.5638 31.4539 58.1704 36.1764C62.3481 38.7648 63.0181 39.2391 64.299 40.5037C65.5405 41.7485 65.8755 42.2622 65.4222 42.2622C64.9099 42.2622 57.9733 38.587 56.0815 37.3224C51.0565 33.9436 47.5094 29.1421 45.9723 23.57C45.46 21.7719 45.4206 21.3372 45.4206 18.0571C45.4206 15.2315 45.4994 14.2436 45.795 13.2161C46.4059 11.003 47.2729 8.96784 48.1006 7.78229L48.9085 6.63625L46.5635 6.75481C40.3364 7.11047 33.4984 8.75049 28.8675 11.0426C20.4136 15.192 14.62 20.9222 10.6591 29.1026C8.45199 33.6472 7.32874 37.5793 6.59962 43.349C5.75226 50.0079 5.35813 51.7467 4.11665 54.1376C3.52547 55.2638 2.93429 56.0147 1.77163 57.1212C0.17544 58.6624 -0.120151 59.2354 0.0374971 60.5396C0.136027 61.409 0.589267 61.567 1.85046 61.1719C2.6387 60.915 3.289 60.5 4.13636 59.7097C6.06755 57.9313 7.38786 55.3231 8.57022 51.0156L9.1417 49.0001L9.69347 51.2132C10.0088 52.4383 10.8364 55.1058 11.5261 57.1805C13.0632 61.7646 13.3982 63.3651 13.5362 66.6649C13.6741 69.7079 13.3982 71.8221 12.1173 77.8289C11.6444 80.0617 11.1517 82.7095 11.0335 83.7172C10.8364 85.3572 10.8364 85.6141 11.1714 86.2859C11.7823 87.5307 11.7429 87.511 19.7436 87.4715C26.7392 87.4122 26.9757 87.3924 27.5275 86.9972C27.961 86.6613 28.0989 86.4045 28.1383 85.7129C28.1778 84.9818 28.0398 84.5076 27.291 83.0651C25.813 80.1605 25.951 79.4887 29.0054 74.9441C31.4293 71.3281 32.986 67.9493 33.7152 64.689C34.0896 63.0095 34.4837 60.2036 34.5034 59.0576C34.5428 56.7853 34.8778 58.9391 35.0158 62.3969L35.1734 65.8548L35.7646 66.0524C36.8287 66.4081 45.5191 66.3093 48.0809 65.8943C51.155 65.4201 55.4313 64.195 56.0224 63.6022C56.121 63.5232 55.9239 62.6143 55.6086 61.6066C54.7021 58.781 54.0321 54.8489 54.5642 55.4219C54.8204 55.6985 58.0324 63.9184 58.5054 65.4794C59.4907 68.878 59.7666 70.6761 59.8454 74.865C59.9242 77.9672 59.8651 79.4689 59.6089 81.2868C59.0572 85.3374 59.0375 85.9895 59.3922 86.6811C59.5695 87.017 59.9242 87.3529 60.1607 87.4122C60.4169 87.4912 63.7669 87.511 67.6096 87.4715C73.7776 87.4122 74.6644 87.3727 75.1176 87.0763C76.0832 86.444 76.0044 85.2584 74.822 82.7885C73.9746 81.0102 73.9944 79.4492 74.9402 74.9638C75.827 70.7353 75.9847 69.4312 76.3591 64.2938C76.8123 57.8325 77.4626 55.2638 79.3938 52.2999C81.0491 49.7708 82.8227 48.5062 84.7342 48.5062C86.1136 48.5062 86.9215 48.9013 88.5966 50.3833C89.976 51.5886 90.6066 51.806 91.316 51.2922C91.5131 51.1341 91.7495 50.6797 91.8284 50.245L91.9466 49.4744L92.4589 51.0551C92.7348 51.9245 93.2866 54.2166 93.6807 56.153C94.5084 60.2036 95.2966 62.8316 96.3607 65.0842C98.5481 69.7079 101.878 72.7903 106.174 74.2327C107.514 74.6872 108.027 74.7465 110.451 74.7465C112.579 74.7662 113.485 74.6674 114.392 74.3908C117.939 73.3238 120.875 70.7946 122.57 67.4158C123.378 65.756 124.146 62.9897 124.284 61.1916C124.422 59.3342 124.757 59.4726 119.909 59.3935L116.362 59.354L116.422 60.4803C116.559 62.8119 115.692 64.9656 114.313 65.677C113.525 66.0722 112.007 66.0524 111.042 65.5979C109.367 64.8471 108.165 62.9304 107.357 59.7492C106.943 58.1289 106.903 57.5757 106.943 53.6238C106.963 51.2329 107.081 47.6763 107.219 45.7201C107.554 41.0767 107.554 30.7623 107.239 27.8775C106.47 20.942 103.218 13.4927 99.0211 9.0864C94.9222 4.77888 90.6066 2.32873 85.5224 1.43956C83.0986 1.02462 76.7532 1.14317 73.6988 1.65691L71.6296 2.01258L69.5802 1.28149C66.2696 0.115689 63.2348 -0.259732 60.6534 0.174973ZM91.513 26.8895C92.2225 27.2057 92.6363 27.9368 92.656 28.8654C92.6757 29.8732 92.1239 30.624 91.1583 30.9402C89.7592 31.4144 88.2813 30.3079 88.2813 28.7864C88.2813 28.1541 88.4192 27.8577 88.9513 27.3242C89.6804 26.5931 90.5672 26.435 91.513 26.8895Z" fill="#007AFF"/>
<path d="M127.139 24.9123C125.432 25.2884 122.588 26.6543 121.137 27.8421C119.274 29.3268 117.764 31.5637 116.803 34.2559C116.234 35.8594 116.097 39.482 116.528 41.4814C116.92 43.2234 117.862 45.302 118.901 46.6481L119.647 47.6379L119.215 48.9444C118.666 50.6864 117.842 51.9336 116.763 52.6858C115.802 53.3589 115.665 53.6756 116.155 54.0913C116.881 54.705 122.177 53.7944 124.824 52.5868C125.923 52.0919 126.001 52.0919 127.335 52.3295C133.375 53.4183 139.22 51.1219 142.652 46.272C146.065 41.422 146.143 35.3051 142.829 30.6333C139.553 25.9813 133.12 23.6454 127.139 24.9123Z" fill="#1A2E49"/>
<rect x="123.09" y="31.2842" width="16" height="16" rx="8" fill="#1A2E49"/>
<rect x="127.09" y="36.7842" width="2" height="5" rx="1" fill="white"/>
<rect x="130.09" y="35.2842" width="2" height="8" rx="1" fill="white"/>
<rect x="133.09" y="36.7842" width="2" height="5" rx="1" fill="white"/>
</svg>
