<svg width="165" height="47" viewBox="0 0 165 47" fill="none" xmlns="http://www.w3.org/2000/svg">
<path d="M14.3041 36C11.7761 36 9.4961 35.56 7.4641 34.68C5.4481 33.8 3.7841 32.544 2.4721 30.912C1.1761 29.264 0.3521 27.312 9.97782e-05 25.056L6.0001 24.144C6.5121 26.192 7.5601 27.776 9.1441 28.896C10.7441 30.016 12.5841 30.576 14.6641 30.576C15.8961 30.576 17.0561 30.384 18.1441 30C19.2321 29.616 20.1121 29.056 20.7841 28.32C21.4721 27.584 21.8161 26.68 21.8161 25.608C21.8161 25.128 21.7361 24.688 21.5761 24.288C21.4161 23.872 21.1761 23.504 20.8561 23.184C20.5521 22.864 20.1521 22.576 19.6561 22.32C19.1761 22.048 18.6161 21.816 17.9761 21.624L9.0481 18.984C8.2801 18.76 7.4481 18.464 6.5521 18.096C5.6721 17.712 4.8321 17.192 4.0321 16.536C3.2481 15.864 2.6001 15.016 2.0881 13.992C1.5921 12.952 1.3441 11.672 1.3441 10.152C1.3441 7.928 1.9041 6.064 3.0241 4.56C4.1601 3.04 5.6801 1.904 7.5841 1.152C9.5041 0.399997 11.6321 0.0319967 13.9681 0.0479975C16.3361 0.0639963 18.4481 0.471996 20.3041 1.272C22.1601 2.056 23.7121 3.2 24.9601 4.704C26.2081 6.208 27.0881 8.024 27.6001 10.152L21.3841 11.232C21.1281 10.016 20.6321 8.984 19.8961 8.136C19.1761 7.272 18.2881 6.616 17.2321 6.168C16.1921 5.72 15.0801 5.48 13.8961 5.448C12.7441 5.432 11.6721 5.608 10.6801 5.976C9.7041 6.328 8.9121 6.84 8.3041 7.512C7.7121 8.184 7.4161 8.968 7.4161 9.864C7.4161 10.712 7.6721 11.408 8.1841 11.952C8.6961 12.48 9.3281 12.904 10.0801 13.224C10.8481 13.528 11.6241 13.784 12.4081 13.992L18.6001 15.72C19.4481 15.944 20.4001 16.248 21.4561 16.632C22.5121 17.016 23.5281 17.552 24.5041 18.24C25.4801 18.928 26.2801 19.832 26.9041 20.952C27.5441 22.072 27.8641 23.496 27.8641 25.224C27.8641 27.016 27.4881 28.592 26.7361 29.952C26.0001 31.296 25.0001 32.416 23.7361 33.312C22.4721 34.208 21.0241 34.88 19.3921 35.328C17.7761 35.776 16.0801 36 14.3041 36ZM45.515 36C42.987 36 40.867 35.4 39.155 34.2C37.443 33 36.155 31.368 35.291 29.304C34.427 27.224 33.995 24.896 33.995 22.32C33.995 19.712 34.427 17.376 35.291 15.312C36.155 13.248 37.419 11.624 39.083 10.44C40.763 9.24 42.835 8.64 45.299 8.64C47.747 8.64 49.867 9.24 51.659 10.44C53.467 11.624 54.867 13.248 55.859 15.312C56.851 17.36 57.347 19.696 57.347 22.32C57.347 24.912 56.859 27.24 55.883 29.304C54.907 31.368 53.531 33 51.755 34.2C49.979 35.4 47.899 36 45.515 36ZM33.011 46.8V9.36H38.123V27.552H38.843V46.8H33.011ZM44.627 30.816C46.131 30.816 47.371 30.44 48.347 29.688C49.323 28.936 50.043 27.92 50.507 26.64C50.987 25.344 51.227 23.904 51.227 22.32C51.227 20.752 50.987 19.328 50.507 18.048C50.027 16.752 49.283 15.728 48.275 14.976C47.267 14.208 45.987 13.824 44.435 13.824C42.963 13.824 41.763 14.184 40.835 14.904C39.907 15.608 39.219 16.6 38.771 17.88C38.339 19.144 38.123 20.624 38.123 22.32C38.123 24 38.339 25.48 38.771 26.76C39.219 28.04 39.915 29.04 40.859 29.76C41.819 30.464 43.075 30.816 44.627 30.816ZM74.4211 36C71.7971 36 69.4931 35.432 67.5091 34.296C65.5251 33.16 63.9731 31.584 62.8531 29.568C61.7491 27.552 61.1971 25.232 61.1971 22.608C61.1971 19.776 61.7411 17.32 62.8291 15.24C63.9171 13.144 65.4291 11.52 67.3651 10.368C69.3011 9.216 71.5411 8.64 74.0851 8.64C76.7731 8.64 79.0531 9.272 80.9251 10.536C82.8131 11.784 84.2131 13.552 85.1251 15.84C86.0371 18.128 86.3811 20.824 86.1571 23.928H80.4211V21.816C80.4051 19 79.9091 16.944 78.9331 15.648C77.9571 14.352 76.4211 13.704 74.3251 13.704C71.9571 13.704 70.1971 14.44 69.0451 15.912C67.8931 17.368 67.3171 19.504 67.3171 22.32C67.3171 24.944 67.8931 26.976 69.0451 28.416C70.1971 29.856 71.8771 30.576 74.0851 30.576C75.5091 30.576 76.7331 30.264 77.7571 29.64C78.7971 29 79.5971 28.08 80.1571 26.88L85.8691 28.608C84.8771 30.944 83.3411 32.76 81.2611 34.056C79.1971 35.352 76.9171 36 74.4211 36ZM65.4931 23.928V19.56H83.3251V23.928H65.4931ZM98.2914 36C96.4194 36 94.8354 35.648 93.5394 34.944C92.2433 34.224 91.2593 33.272 90.5873 32.088C89.9313 30.904 89.6033 29.6 89.6033 28.176C89.6033 26.928 89.8113 25.808 90.2273 24.816C90.6433 23.808 91.2833 22.944 92.1473 22.224C93.0113 21.488 94.1313 20.888 95.5073 20.424C96.5474 20.088 97.7634 19.784 99.1553 19.512C100.563 19.24 102.083 18.992 103.715 18.768C105.363 18.528 107.083 18.272 108.875 18L106.811 19.176C106.827 17.384 106.427 16.064 105.611 15.216C104.795 14.368 103.419 13.944 101.483 13.944C100.315 13.944 99.1874 14.216 98.0993 14.76C97.0114 15.304 96.2514 16.24 95.8194 17.568L90.5393 15.912C91.1793 13.72 92.3953 11.96 94.1874 10.632C95.9953 9.304 98.4274 8.64 101.483 8.64C103.787 8.64 105.811 9.016 107.555 9.768C109.315 10.52 110.619 11.752 111.467 13.464C111.931 14.376 112.211 15.312 112.307 16.272C112.403 17.216 112.451 18.248 112.451 19.368V35.28H107.387V29.664L108.227 30.576C107.059 32.448 105.691 33.824 104.123 34.704C102.571 35.568 100.627 36 98.2914 36ZM99.4433 31.392C100.755 31.392 101.875 31.16 102.803 30.696C103.731 30.232 104.467 29.664 105.011 28.992C105.571 28.32 105.947 27.688 106.139 27.096C106.443 26.36 106.611 25.52 106.643 24.576C106.691 23.616 106.715 22.84 106.715 22.248L108.491 22.776C106.747 23.048 105.251 23.288 104.003 23.496C102.755 23.704 101.683 23.904 100.787 24.096C99.8913 24.272 99.0993 24.472 98.4114 24.696C97.7394 24.936 97.1714 25.216 96.7074 25.536C96.2433 25.856 95.8833 26.224 95.6274 26.64C95.3874 27.056 95.2673 27.544 95.2673 28.104C95.2673 28.744 95.4274 29.312 95.7474 29.808C96.0673 30.288 96.5313 30.672 97.1394 30.96C97.7634 31.248 98.5314 31.392 99.4433 31.392ZM118.652 35.28L118.7 0.719997H124.556V21.84L134.036 9.36H141.26L131.204 22.32L142.124 35.28H134.468L124.556 22.8V35.28H118.652Z" fill="#1A2E49"/>
<path d="M145.008 35.28V-1.90735e-06H150.792V35.28H145.008ZM158.461 5.424V0.119998H164.245V5.424H158.461ZM158.461 35.28V9.36H164.245V35.28H158.461Z" fill="url(#paint0_linear_6_103)"/>
<defs>
<linearGradient id="paint0_linear_6_103" x1="83.1521" y1="-15.72" x2="83.1521" y2="50.28" gradientUnits="userSpaceOnUse">
<stop stop-color="#007AFF"/>
<stop offset="1" stop-color="#1A5CE0"/>
</linearGradient>
</defs>
</svg>
