<svg width="80" height="48" viewBox="0 0 80 48" fill="none" xmlns="http://www.w3.org/2000/svg">
<path d="M33.2759 0.0961912C31.4488 0.410563 30.119 1.10435 28.746 2.48108C27.8379 3.39168 27.6433 3.64101 27.1459 4.64917C26.4973 5.98254 26.2054 7.0449 26.054 8.69264C25.6216 13.2348 27.7406 17.2566 31.9137 19.8474C34.2057 21.2675 34.5732 21.5277 35.276 22.2215C35.9571 22.9044 36.1409 23.1863 35.8922 23.1863C35.6111 23.1863 31.8056 21.17 30.7677 20.4762C28.0108 18.6225 26.0648 15.9882 25.2215 12.9312C24.9404 11.9448 24.9188 11.7063 24.9188 9.90677C24.9188 8.35659 24.9621 7.81457 25.1242 7.25087C25.4594 6.03674 25.9351 4.92018 26.3892 4.26975L26.8324 3.641L25.5459 3.70605C22.1295 3.90118 18.378 4.80093 15.8374 6.05842C11.1994 8.33491 8.02088 11.4786 5.84782 15.9666C4.63697 18.4599 4.02073 20.6171 3.62071 23.7825C3.15583 27.4357 2.9396 28.3897 2.2585 29.7014C1.93416 30.3193 1.60982 30.7312 0.97196 31.3383C0.0962504 32.1838 -0.065918 32.4982 0.0205718 33.2137C0.074628 33.6906 0.323286 33.7774 1.0152 33.5606C1.44765 33.4196 1.80442 33.192 2.26931 32.7584C3.32881 31.7827 4.05316 30.3518 4.70183 27.9886L5.01536 26.8829L5.31807 28.097C5.49105 28.7691 5.94512 30.2326 6.32352 31.3708C7.16679 33.8858 7.35058 34.7638 7.42626 36.5742C7.50194 38.2436 7.35058 39.4035 6.64785 42.699C6.38838 43.924 6.1181 45.3766 6.05324 45.9295C5.94512 46.8292 5.94512 46.9702 6.12891 47.3387C6.46406 48.0217 6.44244 48.0108 10.8318 47.9892C14.6698 47.9566 14.7995 47.9458 15.1022 47.729C15.3401 47.5447 15.4158 47.4038 15.4374 47.0244C15.459 46.6233 15.3833 46.3631 14.9725 45.5717C14.1617 43.9782 14.2373 43.6096 15.9131 41.1163C17.2429 39.1325 18.0969 37.2788 18.497 35.4902C18.7024 34.5687 18.9186 33.0294 18.9294 32.4006C18.951 31.154 19.1348 32.3356 19.2105 34.2327L19.297 36.1297L19.6213 36.2381C20.2051 36.4333 24.9729 36.3791 26.3783 36.1514C28.0649 35.8913 30.4109 35.2191 30.7353 34.8939C30.7893 34.8506 30.6812 34.3519 30.5082 33.7991C30.0109 32.2489 29.6433 30.0916 29.9352 30.406C30.0758 30.5578 31.838 35.0674 32.0975 35.9238C32.638 37.7883 32.7894 38.7748 32.8326 41.073C32.8759 42.7749 32.8435 43.5988 32.7029 44.5961C32.4002 46.8184 32.3894 47.1761 32.584 47.5555C32.6813 47.7398 32.8759 47.9241 33.0056 47.9566C33.1462 48 34.9841 48.0108 37.0923 47.9892C40.4762 47.9566 40.9627 47.935 41.2113 47.7724C41.7411 47.4255 41.6978 46.775 41.0492 45.42C40.5843 44.4443 40.5951 43.588 41.114 41.1272C41.6005 38.8073 41.687 38.0919 41.8924 35.2733C42.1411 31.7285 42.4979 30.3193 43.5574 28.6932C44.4655 27.3056 45.4385 26.6119 46.4872 26.6119C47.244 26.6119 47.6873 26.8287 48.6062 27.6417C49.363 28.303 49.709 28.4222 50.0982 28.1404C50.2063 28.0536 50.336 27.8043 50.3793 27.5658L50.4441 27.143L50.7252 28.0103C50.8766 28.4872 51.1793 29.7447 51.3955 30.8071C51.8496 33.0294 52.282 34.4712 52.8658 35.707C54.0659 38.2436 55.893 39.9347 58.2498 40.7261C58.985 40.9754 59.2661 41.0079 60.5959 41.0079C61.7635 41.0188 62.2608 40.9646 62.7581 40.8128C64.7041 40.2274 66.315 38.8398 67.2448 36.9861C67.688 36.0755 68.1097 34.5579 68.1853 33.5714C68.261 32.5524 68.4448 32.6283 65.7853 32.5849L63.8392 32.5632L63.8717 33.1811C63.9473 34.4603 63.4717 35.6419 62.7149 36.0322C62.2824 36.249 61.45 36.2381 60.9202 35.9888C60.0012 35.5769 59.3418 34.5254 58.8985 32.7801C58.6715 31.8911 58.6498 31.5876 58.6715 29.4195C58.6823 28.1078 58.7471 26.1566 58.8228 25.0834C59.0066 22.5359 59.0066 16.8772 58.8336 15.2945C58.412 11.4895 56.6281 7.40263 54.3254 4.98522C52.0766 2.62201 49.709 1.2778 46.9197 0.789977C45.5899 0.562328 42.1087 0.62737 40.4329 0.909221L39.2978 1.10435L38.1734 0.703253C36.3571 0.0636688 34.6922 -0.142298 33.2759 0.0961912ZM50.2063 14.7524C50.5955 14.9259 50.8225 15.327 50.8333 15.8365C50.8441 16.3893 50.5414 16.8013 50.0117 16.9747C49.2441 17.2349 48.4332 16.6278 48.4332 15.7931C48.4332 15.4462 48.5089 15.2836 48.8008 14.9909C49.2008 14.5898 49.6873 14.5031 50.2063 14.7524Z" fill="url(#paint0_linear_12_33)"/>
<path d="M69.7525 13.6674C68.8164 13.8738 67.2562 14.6231 66.46 15.2748C65.4378 16.0893 64.6092 17.3165 64.082 18.7935C63.77 19.6732 63.6946 21.6607 63.9314 22.7576C64.1466 23.7133 64.663 24.8537 65.2333 25.5922L65.6422 26.1352L65.4055 26.852C65.1042 27.8077 64.6523 28.4919 64.0605 28.9046C63.5332 29.2739 63.4579 29.4477 63.7269 29.6757C64.125 30.0124 67.0303 29.5128 68.4829 28.8503C69.0854 28.5788 69.1285 28.5788 69.8601 28.7091C73.1742 29.3065 76.3807 28.0467 78.2637 25.3858C80.136 22.725 80.179 19.3692 78.3606 16.8061C76.5636 14.2539 73.0343 12.9723 69.7525 13.6674Z" fill="url(#paint1_linear_12_33)"/>
<path d="M44.0663 29.8766C43.2918 31.3395 42.9841 32.7916 42.7082 36.2486C42.5173 38.5893 42.3475 39.8897 41.9656 42.0029C41.6154 43.9427 41.626 44.2786 42.0398 45.2214C42.3051 45.8499 42.3793 46.1859 42.4218 46.9553L42.4748 47.9089L45.0318 47.8439C48.0875 47.768 48.4164 47.7355 48.6498 47.4646C49.0424 47.0311 48.7453 45.8933 47.8541 44.3653C47.5252 43.791 47.4827 43.5525 47.2175 40.9084C47.0477 39.1745 46.6127 37.3431 45.4244 33.3227C45.1273 32.304 44.7666 30.9819 44.6393 30.3642L44.3952 29.2372L44.0663 29.8766Z" fill="#007AFF"/>
<path d="M18.83 37.8361C18.7326 38.1098 18.3754 38.7996 18.0615 39.3799L17.4878 40.4309L17.6069 41.1316C17.6826 41.5477 17.7259 42.8724 17.7043 44.4271C17.6826 47.208 17.7367 47.5256 18.2455 47.7993C18.4944 47.9416 20.3129 47.9416 23.8957 47.8212C26.0064 47.7445 26.1471 47.7226 26.3744 47.4927C26.5692 47.2956 26.6125 47.1424 26.5909 46.7044C26.5584 45.9599 26.277 45.2702 25.5951 44.241C24.8157 43.0805 24.6317 42.5221 24.5018 41.055C24.4044 39.9054 24.4477 39.1062 24.6858 37.7267L24.7508 37.3435H21.8824H19.0248L18.83 37.8361Z" fill="#007AFF"/>
<rect x="66.854" y="16.9412" width="9.3814" height="9.47249" rx="4.6907" fill="url(#paint2_linear_12_33)"/>
<rect x="69.1992" y="20.1973" width="1.17268" height="2.96015" rx="0.586338" fill="white"/>
<rect x="70.9585" y="19.3093" width="1.17268" height="4.73624" rx="0.586338" fill="white"/>
<rect x="72.7173" y="20.1973" width="1.17268" height="2.96015" rx="0.586338" fill="white"/>
<defs>
<linearGradient id="paint0_linear_12_33" x1="34.1101" y1="48" x2="34.1101" y2="0" gradientUnits="userSpaceOnUse">
<stop stop-color="#1A5CE0"/>
<stop offset="1" stop-color="#007AFF"/>
</linearGradient>
<linearGradient id="paint1_linear_12_33" x1="71.6359" y1="29.7837" x2="71.6359" y2="13.4801" gradientUnits="userSpaceOnUse">
<stop stop-color="#0F2D5A"/>
<stop offset="1" stop-color="#0D1F3C"/>
</linearGradient>
<linearGradient id="paint2_linear_12_33" x1="71.5447" y1="16.9412" x2="71.5447" y2="26.4137" gradientUnits="userSpaceOnUse">
<stop stop-color="#0F2D5A"/>
<stop offset="1" stop-color="#0D1F3C"/>
</linearGradient>
</defs>
</svg>
